<mxfile host="Electron" modified="2025-05-26T10:38:54.106Z" agent="Mozilla/5.0 (Windows NT 10.0; Win64; x64) AppleWebKit/537.36 (KHTML, like Gecko) draw.io/22.0.3 Chrome/114.0.5735.289 Electron/25.8.4 Safari/537.36" etag="kSzLBp81EUwJKb77Ml3g" version="22.0.3" type="device">
  <diagram name="Страница — 1" id="8iH0R_JwKjbWJc3oIl61">
    <mxGraphModel dx="1418" dy="820" grid="1" gridSize="10" guides="1" tooltips="1" connect="1" arrows="1" fold="1" page="1" pageScale="1" pageWidth="827" pageHeight="1169" math="0" shadow="0">
      <root>
        <mxCell id="0" />
        <mxCell id="1" parent="0" />
        <mxCell id="nVUHK_DAODnr5wU3C56I-12" value="" style="edgeStyle=orthogonalEdgeStyle;rounded=0;orthogonalLoop=1;jettySize=auto;html=1;exitX=1;exitY=0.5;exitDx=0;exitDy=0;exitPerimeter=0;" parent="1" source="nVUHK_DAODnr5wU3C56I-59" target="nVUHK_DAODnr5wU3C56I-3" edge="1">
          <mxGeometry relative="1" as="geometry">
            <mxPoint x="280" y="250" as="sourcePoint" />
          </mxGeometry>
        </mxCell>
        <mxCell id="nVUHK_DAODnr5wU3C56I-13" value="" style="edgeStyle=orthogonalEdgeStyle;rounded=0;orthogonalLoop=1;jettySize=auto;html=1;" parent="1" source="nVUHK_DAODnr5wU3C56I-3" target="nVUHK_DAODnr5wU3C56I-4" edge="1">
          <mxGeometry relative="1" as="geometry" />
        </mxCell>
        <mxCell id="nVUHK_DAODnr5wU3C56I-3" value="Создать объект PromptTokenizer" style="whiteSpace=wrap;html=1;" parent="1" vertex="1">
          <mxGeometry x="310" y="220" width="120" height="60" as="geometry" />
        </mxCell>
        <mxCell id="nVUHK_DAODnr5wU3C56I-14" value="" style="edgeStyle=orthogonalEdgeStyle;rounded=0;orthogonalLoop=1;jettySize=auto;html=1;" parent="1" source="nVUHK_DAODnr5wU3C56I-4" target="nVUHK_DAODnr5wU3C56I-6" edge="1">
          <mxGeometry relative="1" as="geometry" />
        </mxCell>
        <mxCell id="nVUHK_DAODnr5wU3C56I-4" value="Получить пользовательчкий запрос" style="rounded=0;whiteSpace=wrap;html=1;" parent="1" vertex="1">
          <mxGeometry x="460" y="220" width="120" height="60" as="geometry" />
        </mxCell>
        <mxCell id="nVUHK_DAODnr5wU3C56I-15" value="" style="edgeStyle=orthogonalEdgeStyle;rounded=0;orthogonalLoop=1;jettySize=auto;html=1;" parent="1" source="nVUHK_DAODnr5wU3C56I-6" target="nVUHK_DAODnr5wU3C56I-7" edge="1">
          <mxGeometry relative="1" as="geometry" />
        </mxCell>
        <mxCell id="nVUHK_DAODnr5wU3C56I-6" value="Токенизировать текст при помощи PromptTokenizer" style="whiteSpace=wrap;html=1;" parent="1" vertex="1">
          <mxGeometry x="610" y="220" width="120" height="60" as="geometry" />
        </mxCell>
        <mxCell id="nVUHK_DAODnr5wU3C56I-16" value="" style="edgeStyle=orthogonalEdgeStyle;rounded=0;orthogonalLoop=1;jettySize=auto;html=1;" parent="1" source="nVUHK_DAODnr5wU3C56I-7" target="nVUHK_DAODnr5wU3C56I-8" edge="1">
          <mxGeometry relative="1" as="geometry" />
        </mxCell>
        <mxCell id="nVUHK_DAODnr5wU3C56I-7" value="Привести к нижнему регистру и удалить стоп слова" style="whiteSpace=wrap;html=1;" parent="1" vertex="1">
          <mxGeometry x="760" y="220" width="120" height="60" as="geometry" />
        </mxCell>
        <mxCell id="nVUHK_DAODnr5wU3C56I-17" value="" style="edgeStyle=orthogonalEdgeStyle;rounded=0;orthogonalLoop=1;jettySize=auto;html=1;" parent="1" source="nVUHK_DAODnr5wU3C56I-8" target="nVUHK_DAODnr5wU3C56I-9" edge="1">
          <mxGeometry relative="1" as="geometry" />
        </mxCell>
        <mxCell id="nVUHK_DAODnr5wU3C56I-8" value="Определить части речи" style="whiteSpace=wrap;html=1;" parent="1" vertex="1">
          <mxGeometry x="910" y="220" width="120" height="60" as="geometry" />
        </mxCell>
        <mxCell id="nVUHK_DAODnr5wU3C56I-9" value="Привести теги к WordNet формату" style="whiteSpace=wrap;html=1;" parent="1" vertex="1">
          <mxGeometry x="1060" y="220" width="120" height="60" as="geometry" />
        </mxCell>
        <mxCell id="nVUHK_DAODnr5wU3C56I-11" style="edgeStyle=orthogonalEdgeStyle;rounded=0;orthogonalLoop=1;jettySize=auto;html=1;entryX=0.5;entryY=0;entryDx=0;entryDy=0;entryPerimeter=0;" parent="1" source="nVUHK_DAODnr5wU3C56I-9" target="nVUHK_DAODnr5wU3C56I-20" edge="1">
          <mxGeometry relative="1" as="geometry">
            <mxPoint x="1280" y="300" as="targetPoint" />
          </mxGeometry>
        </mxCell>
        <mxCell id="nVUHK_DAODnr5wU3C56I-18" value="" style="rounded=1;whiteSpace=wrap;html=1;absoluteArcSize=1;arcSize=14;strokeWidth=2;" parent="1" vertex="1">
          <mxGeometry x="160" y="320" width="1020" height="570" as="geometry" />
        </mxCell>
        <mxCell id="nVUHK_DAODnr5wU3C56I-21" style="edgeStyle=orthogonalEdgeStyle;rounded=0;orthogonalLoop=1;jettySize=auto;html=1;entryX=1;entryY=0.5;entryDx=0;entryDy=0;" parent="1" source="nVUHK_DAODnr5wU3C56I-20" target="nVUHK_DAODnr5wU3C56I-22" edge="1">
          <mxGeometry relative="1" as="geometry" />
        </mxCell>
        <mxCell id="nVUHK_DAODnr5wU3C56I-20" value="Вызвать _token_processing" style="rounded=0;whiteSpace=wrap;html=1;" parent="1" vertex="1">
          <mxGeometry x="1230" y="290" width="120" height="60" as="geometry" />
        </mxCell>
        <mxCell id="nVUHK_DAODnr5wU3C56I-24" value="" style="edgeStyle=orthogonalEdgeStyle;rounded=0;orthogonalLoop=1;jettySize=auto;html=1;" parent="1" source="nVUHK_DAODnr5wU3C56I-22" target="nVUHK_DAODnr5wU3C56I-23" edge="1">
          <mxGeometry relative="1" as="geometry" />
        </mxCell>
        <mxCell id="nVUHK_DAODnr5wU3C56I-22" value="Инициализировать словарь результатов" style="rounded=0;whiteSpace=wrap;html=1;" parent="1" vertex="1">
          <mxGeometry x="1040" y="340" width="120" height="60" as="geometry" />
        </mxCell>
        <mxCell id="nVUHK_DAODnr5wU3C56I-26" value="" style="edgeStyle=orthogonalEdgeStyle;rounded=0;orthogonalLoop=1;jettySize=auto;html=1;" parent="1" source="nVUHK_DAODnr5wU3C56I-23" target="nVUHK_DAODnr5wU3C56I-25" edge="1">
          <mxGeometry relative="1" as="geometry" />
        </mxCell>
        <mxCell id="nVUHK_DAODnr5wU3C56I-56" style="edgeStyle=orthogonalEdgeStyle;rounded=0;orthogonalLoop=1;jettySize=auto;html=1;" parent="1" source="nVUHK_DAODnr5wU3C56I-23" target="nVUHK_DAODnr5wU3C56I-55" edge="1">
          <mxGeometry relative="1" as="geometry" />
        </mxCell>
        <mxCell id="nVUHK_DAODnr5wU3C56I-23" value="Для каждого слова, тега" style="strokeWidth=2;html=1;shape=mxgraph.flowchart.decision;whiteSpace=wrap;" parent="1" vertex="1">
          <mxGeometry x="1050" y="420" width="100" height="100" as="geometry" />
        </mxCell>
        <mxCell id="nVUHK_DAODnr5wU3C56I-25" value="Получить лемму" style="rounded=0;whiteSpace=wrap;html=1;" parent="1" vertex="1">
          <mxGeometry x="850" y="340" width="120" height="60" as="geometry" />
        </mxCell>
        <mxCell id="nVUHK_DAODnr5wU3C56I-29" style="edgeStyle=orthogonalEdgeStyle;rounded=0;orthogonalLoop=1;jettySize=auto;html=1;entryX=0.5;entryY=1;entryDx=0;entryDy=0;entryPerimeter=0;exitX=1;exitY=0.5;exitDx=0;exitDy=0;exitPerimeter=0;" parent="1" source="nVUHK_DAODnr5wU3C56I-27" target="nVUHK_DAODnr5wU3C56I-23" edge="1">
          <mxGeometry relative="1" as="geometry">
            <Array as="points">
              <mxPoint x="850" y="520" />
            </Array>
          </mxGeometry>
        </mxCell>
        <mxCell id="nVUHK_DAODnr5wU3C56I-30" value="Нет" style="edgeLabel;html=1;align=center;verticalAlign=middle;resizable=0;points=[];" parent="nVUHK_DAODnr5wU3C56I-29" vertex="1" connectable="0">
          <mxGeometry x="0.0913" y="-3" relative="1" as="geometry">
            <mxPoint as="offset" />
          </mxGeometry>
        </mxCell>
        <mxCell id="nVUHK_DAODnr5wU3C56I-32" style="edgeStyle=orthogonalEdgeStyle;rounded=0;orthogonalLoop=1;jettySize=auto;html=1;entryX=1;entryY=0.5;entryDx=0;entryDy=0;exitX=0;exitY=0.5;exitDx=0;exitDy=0;exitPerimeter=0;" parent="1" source="nVUHK_DAODnr5wU3C56I-27" target="nVUHK_DAODnr5wU3C56I-31" edge="1">
          <mxGeometry relative="1" as="geometry">
            <Array as="points">
              <mxPoint x="750" y="380" />
            </Array>
          </mxGeometry>
        </mxCell>
        <mxCell id="nVUHK_DAODnr5wU3C56I-33" value="Да" style="edgeLabel;html=1;align=center;verticalAlign=middle;resizable=0;points=[];" parent="nVUHK_DAODnr5wU3C56I-32" vertex="1" connectable="0">
          <mxGeometry x="0.0848" y="-1" relative="1" as="geometry">
            <mxPoint as="offset" />
          </mxGeometry>
        </mxCell>
        <mxCell id="nVUHK_DAODnr5wU3C56I-27" value="Лемма есть в Wordnet?" style="strokeWidth=2;html=1;shape=mxgraph.flowchart.decision;whiteSpace=wrap;" parent="1" vertex="1">
          <mxGeometry x="750" y="420" width="100" height="100" as="geometry" />
        </mxCell>
        <mxCell id="nVUHK_DAODnr5wU3C56I-28" style="edgeStyle=orthogonalEdgeStyle;rounded=0;orthogonalLoop=1;jettySize=auto;html=1;entryX=0.5;entryY=0;entryDx=0;entryDy=0;entryPerimeter=0;" parent="1" source="nVUHK_DAODnr5wU3C56I-25" target="nVUHK_DAODnr5wU3C56I-27" edge="1">
          <mxGeometry relative="1" as="geometry">
            <Array as="points">
              <mxPoint x="800" y="370" />
            </Array>
          </mxGeometry>
        </mxCell>
        <mxCell id="nVUHK_DAODnr5wU3C56I-31" value="Получить synset" style="rounded=0;whiteSpace=wrap;html=1;" parent="1" vertex="1">
          <mxGeometry x="610" y="350" width="120" height="60" as="geometry" />
        </mxCell>
        <mxCell id="nVUHK_DAODnr5wU3C56I-39" style="edgeStyle=orthogonalEdgeStyle;rounded=0;orthogonalLoop=1;jettySize=auto;html=1;entryX=1;entryY=0.5;entryDx=0;entryDy=0;" parent="1" source="nVUHK_DAODnr5wU3C56I-34" target="nVUHK_DAODnr5wU3C56I-38" edge="1">
          <mxGeometry relative="1" as="geometry" />
        </mxCell>
        <mxCell id="nVUHK_DAODnr5wU3C56I-40" value="Да" style="edgeLabel;html=1;align=center;verticalAlign=middle;resizable=0;points=[];" parent="nVUHK_DAODnr5wU3C56I-39" vertex="1" connectable="0">
          <mxGeometry x="-0.1444" y="-1" relative="1" as="geometry">
            <mxPoint as="offset" />
          </mxGeometry>
        </mxCell>
        <mxCell id="nVUHK_DAODnr5wU3C56I-34" value="Synset найден?" style="strokeWidth=2;html=1;shape=mxgraph.flowchart.decision;whiteSpace=wrap;" parent="1" vertex="1">
          <mxGeometry x="510" y="410" width="100" height="100" as="geometry" />
        </mxCell>
        <mxCell id="nVUHK_DAODnr5wU3C56I-35" style="edgeStyle=orthogonalEdgeStyle;rounded=0;orthogonalLoop=1;jettySize=auto;html=1;entryX=0.5;entryY=0;entryDx=0;entryDy=0;entryPerimeter=0;" parent="1" source="nVUHK_DAODnr5wU3C56I-31" target="nVUHK_DAODnr5wU3C56I-34" edge="1">
          <mxGeometry relative="1" as="geometry">
            <Array as="points">
              <mxPoint x="560" y="390" />
            </Array>
          </mxGeometry>
        </mxCell>
        <mxCell id="nVUHK_DAODnr5wU3C56I-36" style="edgeStyle=orthogonalEdgeStyle;rounded=0;orthogonalLoop=1;jettySize=auto;html=1;entryX=0.5;entryY=1;entryDx=0;entryDy=0;entryPerimeter=0;" parent="1" source="nVUHK_DAODnr5wU3C56I-34" target="nVUHK_DAODnr5wU3C56I-23" edge="1">
          <mxGeometry relative="1" as="geometry">
            <mxPoint x="1070" y="520" as="targetPoint" />
            <Array as="points">
              <mxPoint x="560" y="580" />
              <mxPoint x="1100" y="580" />
            </Array>
          </mxGeometry>
        </mxCell>
        <mxCell id="nVUHK_DAODnr5wU3C56I-37" value="Нет" style="edgeLabel;html=1;align=center;verticalAlign=middle;resizable=0;points=[];" parent="nVUHK_DAODnr5wU3C56I-36" vertex="1" connectable="0">
          <mxGeometry x="0.3541" y="-4" relative="1" as="geometry">
            <mxPoint as="offset" />
          </mxGeometry>
        </mxCell>
        <mxCell id="nVUHK_DAODnr5wU3C56I-38" value="Обнулить словарь соответствия категориям" style="rounded=0;whiteSpace=wrap;html=1;" parent="1" vertex="1">
          <mxGeometry x="350" y="350" width="120" height="60" as="geometry" />
        </mxCell>
        <mxCell id="nVUHK_DAODnr5wU3C56I-44" value="" style="edgeStyle=orthogonalEdgeStyle;rounded=0;orthogonalLoop=1;jettySize=auto;html=1;" parent="1" source="nVUHK_DAODnr5wU3C56I-41" target="nVUHK_DAODnr5wU3C56I-43" edge="1">
          <mxGeometry relative="1" as="geometry" />
        </mxCell>
        <mxCell id="nVUHK_DAODnr5wU3C56I-50" style="edgeStyle=orthogonalEdgeStyle;rounded=0;orthogonalLoop=1;jettySize=auto;html=1;entryX=0.5;entryY=0;entryDx=0;entryDy=0;" parent="1" source="nVUHK_DAODnr5wU3C56I-41" target="nVUHK_DAODnr5wU3C56I-48" edge="1">
          <mxGeometry relative="1" as="geometry" />
        </mxCell>
        <mxCell id="nVUHK_DAODnr5wU3C56I-41" value="Для каждой категории" style="strokeWidth=2;html=1;shape=mxgraph.flowchart.decision;whiteSpace=wrap;" parent="1" vertex="1">
          <mxGeometry x="250" y="410" width="100" height="100" as="geometry" />
        </mxCell>
        <mxCell id="nVUHK_DAODnr5wU3C56I-42" style="edgeStyle=orthogonalEdgeStyle;rounded=0;orthogonalLoop=1;jettySize=auto;html=1;entryX=0.5;entryY=0;entryDx=0;entryDy=0;entryPerimeter=0;" parent="1" source="nVUHK_DAODnr5wU3C56I-38" target="nVUHK_DAODnr5wU3C56I-41" edge="1">
          <mxGeometry relative="1" as="geometry">
            <Array as="points">
              <mxPoint x="300" y="380" />
            </Array>
          </mxGeometry>
        </mxCell>
        <mxCell id="nVUHK_DAODnr5wU3C56I-46" value="" style="edgeStyle=orthogonalEdgeStyle;rounded=0;orthogonalLoop=1;jettySize=auto;html=1;" parent="1" source="nVUHK_DAODnr5wU3C56I-43" target="nVUHK_DAODnr5wU3C56I-45" edge="1">
          <mxGeometry relative="1" as="geometry" />
        </mxCell>
        <mxCell id="nVUHK_DAODnr5wU3C56I-43" value="Для каждого ключевого слова" style="strokeWidth=2;html=1;shape=mxgraph.flowchart.decision;whiteSpace=wrap;" parent="1" vertex="1">
          <mxGeometry x="240" y="560" width="120" height="110" as="geometry" />
        </mxCell>
        <mxCell id="nVUHK_DAODnr5wU3C56I-45" value="Вычисляем&amp;nbsp;Сходство Ликока-Чодороу&lt;span class=&quot;ZSCsVd&quot;&gt;&lt;/span&gt;&lt;div class=&quot;OvtS8d&quot;&gt;&lt;/div&gt;" style="rounded=0;whiteSpace=wrap;html=1;" parent="1" vertex="1">
          <mxGeometry x="240" y="700" width="120" height="60" as="geometry" />
        </mxCell>
        <mxCell id="nVUHK_DAODnr5wU3C56I-47" style="edgeStyle=orthogonalEdgeStyle;rounded=0;orthogonalLoop=1;jettySize=auto;html=1;entryX=0;entryY=0.5;entryDx=0;entryDy=0;entryPerimeter=0;" parent="1" source="nVUHK_DAODnr5wU3C56I-45" target="nVUHK_DAODnr5wU3C56I-41" edge="1">
          <mxGeometry relative="1" as="geometry">
            <Array as="points">
              <mxPoint x="210" y="730" />
              <mxPoint x="210" y="460" />
            </Array>
          </mxGeometry>
        </mxCell>
        <mxCell id="nVUHK_DAODnr5wU3C56I-53" style="edgeStyle=orthogonalEdgeStyle;rounded=0;orthogonalLoop=1;jettySize=auto;html=1;entryX=0;entryY=0.5;entryDx=0;entryDy=0;" parent="1" source="nVUHK_DAODnr5wU3C56I-48" target="nVUHK_DAODnr5wU3C56I-52" edge="1">
          <mxGeometry relative="1" as="geometry">
            <Array as="points">
              <mxPoint x="450" y="730" />
            </Array>
          </mxGeometry>
        </mxCell>
        <mxCell id="nVUHK_DAODnr5wU3C56I-48" value="Определить максисальную степень сходства" style="rounded=0;whiteSpace=wrap;html=1;" parent="1" vertex="1">
          <mxGeometry x="390" y="585" width="120" height="60" as="geometry" />
        </mxCell>
        <mxCell id="nVUHK_DAODnr5wU3C56I-54" style="edgeStyle=orthogonalEdgeStyle;rounded=0;orthogonalLoop=1;jettySize=auto;html=1;" parent="1" source="nVUHK_DAODnr5wU3C56I-52" edge="1">
          <mxGeometry relative="1" as="geometry">
            <mxPoint x="1100" y="580" as="targetPoint" />
          </mxGeometry>
        </mxCell>
        <mxCell id="nVUHK_DAODnr5wU3C56I-52" value="Добавить слово в категорию с максимальной степенью сходства" style="rounded=0;whiteSpace=wrap;html=1;" parent="1" vertex="1">
          <mxGeometry x="520" y="700" width="120" height="60" as="geometry" />
        </mxCell>
        <mxCell id="nVUHK_DAODnr5wU3C56I-58" value="" style="edgeStyle=orthogonalEdgeStyle;rounded=0;orthogonalLoop=1;jettySize=auto;html=1;entryX=0.5;entryY=0;entryDx=0;entryDy=0;entryPerimeter=0;" parent="1" source="nVUHK_DAODnr5wU3C56I-55" target="nVUHK_DAODnr5wU3C56I-60" edge="1">
          <mxGeometry relative="1" as="geometry">
            <mxPoint x="1310" y="670" as="targetPoint" />
          </mxGeometry>
        </mxCell>
        <mxCell id="nVUHK_DAODnr5wU3C56I-55" value="Вернуть словарь результатов" style="whiteSpace=wrap;html=1;" parent="1" vertex="1">
          <mxGeometry x="1250" y="560" width="120" height="60" as="geometry" />
        </mxCell>
        <mxCell id="nVUHK_DAODnr5wU3C56I-59" value="Начало" style="strokeWidth=2;html=1;shape=mxgraph.flowchart.start_2;whiteSpace=wrap;fontSize=18;" parent="1" vertex="1">
          <mxGeometry x="180" y="200" width="100" height="100" as="geometry" />
        </mxCell>
        <mxCell id="nVUHK_DAODnr5wU3C56I-60" value="Конец" style="strokeWidth=2;html=1;shape=mxgraph.flowchart.start_2;whiteSpace=wrap;fontSize=18;" parent="1" vertex="1">
          <mxGeometry x="1260" y="690" width="100" height="100" as="geometry" />
        </mxCell>
        <mxCell id="nVUHK_DAODnr5wU3C56I-61" value="Метод _token_processing" style="text;html=1;strokeColor=none;fillColor=none;align=center;verticalAlign=middle;whiteSpace=wrap;rounded=0;fontSize=18;" parent="1" vertex="1">
          <mxGeometry x="525" y="830" width="290" height="30" as="geometry" />
        </mxCell>
        <mxCell id="nVUHK_DAODnr5wU3C56I-62" value="&lt;div style=&quot;line-height: 19px;&quot;&gt;&lt;font style=&quot;font-size: 50px;&quot;&gt;&lt;b&gt;Алгоритм токенизации запроса&lt;/b&gt;&lt;/font&gt;&lt;/div&gt;" style="text;html=1;align=center;verticalAlign=middle;resizable=0;points=[];autosize=1;strokeColor=none;fillColor=none;" parent="1" vertex="1">
          <mxGeometry x="360" y="150" width="800" height="50" as="geometry" />
        </mxCell>
      </root>
    </mxGraphModel>
  </diagram>
</mxfile>
